<?xml version="1.0" encoding="utf-8"?>
<!-- Generator: Adobe Illustrator 24.3.0, SVG Export Plug-In . SVG Version: 6.00 Build 0)  -->
<svg version="1.1" id="Layer_1" xmlns="http://www.w3.org/2000/svg" xmlns:xlink="http://www.w3.org/1999/xlink" x="0px" y="0px"
	 viewBox="0 0 4464 1008" style="enable-background:new 0 0 4464 1008;" xml:space="preserve">
<style type="text/css">
	.st0{fill:#FFDE17;}
</style>
<polygon className="st0" points="72,198.8 289.4,72 504,198 720.4,72 936,198 936,441 720,567 720,819 504.5,945 288,819 288,567 
	72,447.1 "/>
<polygon className="st0" points="1800,818.2 1582.6,945 1368,819 1151.6,945 936,819 936,576 1152,450 1152,198 1367.5,72 1584,198 
	1584,450 1800,569.9 "/>
<polygon className="st0" points="1800,198.8 2017.4,72 2232,198 2448.4,72 2664,198 2664,441 2448,567 2448,819 2232.5,945 2016,819 
	2016,567 1800,447.1 "/>
<polygon className="st0" points="3528,818.2 3310.6,945 3096,819 2879.6,945 2664,819 2664,576 2880,450 2880,198 3095.5,72 3312,198 
	3312,450 3528,569.9 "/>
<polygon className="st0" points="3528,198.8 3745.4,72 3960,198 4176.4,72 4392,198 4392,441 4176,567 4176,819 3960.5,945 3744,819 
	3744,567 3528,447.1 "/>
</svg>
